<svg xmlns="http://www.w3.org/2000/svg" fill="none" viewBox="0 0 401.12 436.2348178137652" style="max-height: 500px" width="401.12" height="436.2348178137652">
<path fill="#184533" d="M384.732 256.218L318.832 322.117C318.034 318.371 317.615 314.484 317.615 310.5C317.615 279.848 342.463 255 373.115 255C377.099 255 380.985 255.42 384.732 256.218Z"/>
<path fill="#184533" d="M387.285 253.665C381.73 252.572 375.989 252 370.115 252C321.237 252 281.615 291.623 281.615 340.5C281.615 346.375 282.187 352.116 283.279 357.671L224.532 416.418C221.972 406.033 220.615 395.175 220.615 384C220.615 309.442 281.056 249 355.615 249C366.789 249 377.647 250.358 388.032 252.917L387.285 253.665Z" clip-rule="evenodd" fill-rule="evenodd"/>
<path fill="#184533" d="M390.516 250.433L389.929 251.019C372.214 243.911 352.87 240 332.614 240C247.562 240 178.614 308.948 178.614 394C178.614 406.664 180.142 418.971 183.025 430.747L94.4692 342.191C130.99 272.527 204.002 225 288.114 225C325.117 225 359.971 234.198 390.516 250.433Z" clip-rule="evenodd" fill-rule="evenodd"/>
<path fill="#184533" d="M232.613 182C296.411 182 355.363 202.744 403.094 237.855L402.994 237.954C363.841 217.54 319.325 206 272.113 206C186.106 206 109.044 244.299 57.0519 304.774L23.864 271.586C76.3327 216.402 150.455 182 232.613 182Z" clip-rule="evenodd" fill-rule="evenodd"/>
<path fill="#184533" d="M196.615 13L244.899 61.2849L179.115 71.5L255.114 71.5L299.816 116.202L220.615 128.5L312.115 128.5L393.229 209.615C336.063 174.348 268.715 154 196.615 154C124.514 154 57.1661 174.348 -8.7125e-05 209.615L57.1145 152.5L112.115 152.5L64.507 145.108L117.115 92.5H176.115L125.045 84.5699L196.615 13Z" clip-rule="evenodd" fill-rule="evenodd"/>
<path fill="#184533" d="M644.915 273.28H571.555L559.795 308H509.675L580.795 111.44H636.235L707.355 308H656.675L644.915 273.28ZM632.595 236.32L608.235 164.36L584.155 236.32H632.595ZM863.68 111.44V308H815.8V111.44H863.68ZM1115.66 173.6C1112.11 167.067 1106.98 162.12 1100.26 158.76C1093.73 155.213 1085.98 153.44 1077.02 153.44C1061.53 153.44 1049.11 158.573 1039.78 168.84C1030.45 178.92 1025.78 192.453 1025.78 209.44C1025.78 227.547 1030.63 241.733 1040.34 252C1050.23 262.08 1063.77 267.12 1080.94 267.12C1092.7 267.12 1102.59 264.133 1110.62 258.16C1118.83 252.187 1124.81 243.6 1128.54 232.4H1067.78V197.12H1171.94V241.64C1168.39 253.587 1162.33 264.693 1153.74 274.96C1145.34 285.227 1134.61 293.533 1121.54 299.88C1108.47 306.227 1093.73 309.4 1077.3 309.4C1057.89 309.4 1040.53 305.2 1025.22 296.8C1010.1 288.213 998.245 276.36 989.658 261.24C981.258 246.12 977.058 228.853 977.058 209.44C977.058 190.027 981.258 172.76 989.658 157.64C998.245 142.333 1010.1 130.48 1025.22 122.08C1040.34 113.493 1057.61 109.2 1077.02 109.2C1100.54 109.2 1120.33 114.893 1136.38 126.28C1152.62 137.667 1163.35 153.44 1168.58 173.6H1115.66ZM1385.5 308L1344.62 233.8H1333.14V308H1285.26V111.44H1365.62C1381.11 111.44 1394.27 114.147 1405.1 119.56C1416.11 124.973 1424.33 132.44 1429.74 141.96C1435.15 151.293 1437.86 161.747 1437.86 173.32C1437.86 186.387 1434.13 198.053 1426.66 208.32C1419.38 218.587 1408.55 225.867 1394.18 230.16L1439.54 308H1385.5ZM1333.14 199.92H1362.82C1371.59 199.92 1378.13 197.773 1382.42 193.48C1386.9 189.187 1389.14 183.12 1389.14 175.28C1389.14 167.813 1386.9 161.933 1382.42 157.64C1378.13 153.347 1371.59 151.2 1362.82 151.2H1333.14V199.92ZM1677.08 273.28H1603.72L1591.96 308H1541.84L1612.96 111.44H1668.4L1739.52 308H1688.84L1677.08 273.28ZM1664.76 236.32L1640.4 164.36L1616.32 236.32H1664.76Z"/>
</svg>